<?xml version="1.0" standalone="no"?>
<!DOCTYPE svg PUBLIC "-//W3C//DTD SVG 1.1//EN" "http://www.w3.org/Graphics/SVG/1.1/DTD/svg11.dtd" >
<svg xmlns="http://www.w3.org/2000/svg">
<metadata>
This is a custom SVG webfont generated by Font Squirrel.
Copyright   : c Jakob Fischer at wwwpizzadudedk  DO NOT DISTRIBUTE WITHOUT AUTHORS PERMISSION
</metadata>
<defs>
<font id="ChineseTakeawayRegular" horiz-adv-x="1153" >
<font-face units-per-em="2048" ascent="1638" descent="-410" />
<missing-glyph horiz-adv-x="1024" />
<glyph unicode=" "  horiz-adv-x="1024" />
<glyph unicode="&#x09;" horiz-adv-x="1024" />
<glyph unicode="&#xa0;" horiz-adv-x="1024" />
<glyph unicode="!" horiz-adv-x="464" d="M0 -229q0 53 75 124.5t128 71.5h47q29 -29 29 -71l-37 -127h86l145 28q12 -12 12 -37q0 -49 -127 -108q-113 -53 -165 -53q-80 0 -136.5 47t-56.5 125zM0 1415q39 37 170 129q145 102 166 103q8 0 24.5 -6.5t22.5 -6.5v-10q2 -10 8 -27q-37 4 -37 -16v-1442h-172l-20 21 v37z" />
<glyph unicode="&#x22;" horiz-adv-x="792" d="M0 1343l213 205l18 -14l17 6q6 -8 20 -24v-62q0 -168 23 -559l-23 -64h-61q-14 0 -40 31t-30 47l-102 396q-6 24 -35 38zM358 1456q0 -12 9.5 10.5t7.5 34.5q4 4 10 15q231 129 277 129h32l23 -43q-31 -82 -45 -172l-29 -177l-45 -389q-8 -78 -57 -78h-62l-53 400 q-6 41 -39 162q-29 102 -29 108z" />
<glyph unicode="#" horiz-adv-x="1077" d="M8 461v92l51 10l156 -31v160q0 37 -68 41l-102 55l148 70l-37 391q0 68 55 84q180 104 197 105q41 0 36 -49q-35 -379 -30 -486l174 29l20 371q20 16 64 38l39 -16v-371h145q6 0 20.5 -3t20.5 -3l96 -301q-10 -12 -55 -33l-168 60v-172q4 -8 14 -19q211 -35 217 -149 l-47 -31h-131l68 -266l-281 -76q-12 4 -45 16v357h-180l23 -324q0 -14 -25 -31.5t-39 -17.5h-61l-45 336l-13 14h-157zM401 508h168v205h-168v-205z" />
<glyph unicode="$" horiz-adv-x="872" d="M0 381l145 59h56q6 0 11 8.5t13 8.5q6 0 18.5 -4t18.5 -4l62 22v193q-57 61 -181 186h-94l-18 20l331 254v297q0 27 63.5 71t94.5 44q18 0 47 -27l-32 -376l79 20l91 21h59q8 0 8 4t8 4q47 0 56 -60l-9 -229l-18 -19q-35 0 -103.5 12.5t-103.5 12.5q-49 0 -104 -22v-132 q106 -84 235 -204q150 -139 150 -166q0 -23 -95.5 -132.5t-115.5 -107.5h-47l-88 180h-52q-16 0 -29.5 -27.5t-15.5 -47.5l-22 -283q2 -27 -19.5 -47.5t-48.5 -20.5q-8 0 -43 19q-2 70 -4 211q0 111 -12 110q-20 0 -107.5 -71.5t-115.5 -71.5q-18 0 -35 18q0 47 -16.5 139.5 t-16.5 137.5zM268 883l62 -39q0 35 8 39h-70z" />
<glyph unicode="%" horiz-adv-x="831" d="M0 1059q0 37 27 108q35 94 82 95q16 0 55 -29q16 -4 59 -21q53 -20 47 -86l-6 -71q6 -31 -40 -78t-79 -47h-57q-33 0 -61 49q-27 43 -27 80zM14 121q0 31 269 694q35 94 131 336q109 268 178 268q33 0 33 -33q0 -10 -16.5 -44.5t-18.5 -47.5q-23 -84 -174 -639 q-102 -373 -174 -731q-8 -39 -33 -55h-55q-43 43 -88 119q-52 86 -52 133zM489 414q0 51 29 116q37 84 88 84q57 0 113.5 -52t56.5 -109q0 -39 -22 -101q-29 -78 -66 -78h-96q-45 0 -76 50q-27 41 -27 90z" />
<glyph unicode="&#x26;" horiz-adv-x="1406" d="M0 1063q0 160 344 332q111 55 139 59l68 -27h51l27 -38q-74 -4 -145.5 -100.5t-71.5 -174.5q0 -158 186 -342q53 -53 334 -274l278 276h56l94 -168q-10 -16 -29 -39q-80 -18 -166 -73q-109 -70 -151 -113q-4 -6 -4 -29v-2q0 -29 -4 -45l-76 8q-14 -102 -185 -207 q-158 -96 -270 -96q-133 0 -233 76q-106 82 -107 213q0 86 53 207q61 139 131 164q-104 51 -204 164q-115 129 -115 229zM348 453q0 -57 60 -117q66 -68 143 -66l254 105q-170 119 -416 256l-37 -150q-4 -14 -4 -28zM631 836q0 18 57 59q70 49 76 55q88 86 84 164 q-2 49 -82 119q-39 33 -119 98q10 16 45 44t51 30h134l79 -19q74 6 152 -66.5t76 -148.5q-4 -129 -305 -266q-33 -31 -103 -69q-37 -6 -108 -21z" />
<glyph unicode="'" horiz-adv-x="471" d="M39 1444q0 -12 9 10.5t7 34.5q4 4 8 14q41 23 132 72q111 59 147 59h31l24 -45q-29 -78 -45 -172l-30 -176l-43 -389q-8 -78 -58 -78h-61l-54 400q-4 35 -36 141q-31 94 -31 129z" />
<glyph unicode="(" horiz-adv-x="669" d="M0 453l8 219q37 272 197 553q176 309 393 422l109 -19l4 -10q4 -10 4 -21q0 6 -117 -116q-135 -141 -227 -281q-139 -211 -154 -346l-24 -244q0 -197 141 -387q119 -162 309 -282q-43 -51 -151 -189q-98 -154 -132 -153q-43 0 -73 65q-8 18 -41 96q-82 131 -162 375 q-61 193 -84 318z" />
<glyph unicode=")" horiz-adv-x="790" d="M0 1593q23 37 109 54q39 6 102 -52q6 -4 80 -88q188 -211 227 -288q180 -369 189 -564l8 -202q-18 -121 -56 -234q-31 -96 -75 -225q-14 -41 -101 -207q-98 -188 -129 -188q-29 0 -73 65q-16 25 -58 88q-51 61 -151 189q176 98 307 282q143 201 143 387l-24 244 q-16 156 -187 399q-139 199 -311 340z" />
<glyph unicode="*" horiz-adv-x="1087" d="M258 774q49 360 348 346q123 -6 238 -63q145 -74 145 -180q0 -139 -103.5 -227.5t-246.5 -88.5q-109 0 -240 60q-153 69 -141 153z" />
<glyph unicode="+" horiz-adv-x="847" d="M0 827q0 23 49 54h225v127q0 27 30 79t52 62l64 -41v-156q0 -23 29 -78h268l61 -75q0 -12 -15 -29.5t-26 -17.5h-114l-158 -43l84 -277q-41 -23 -107 -55q-88 -45 -125 -45q-94 0 -94 80v211l-147 -48q-18 10 -35.5 59.5t-17.5 76.5v67q0 6 -11.5 22.5t-11.5 26.5z" />
<glyph unicode="," horiz-adv-x="591" d="M92 -41l121 236l100 -43q63 -8 127 -93.5t64 -152.5v-62q0 -55 -45 -133q-53 -90 -119 -88l-160 -33l-37 13q-27 12 -32 35l108 198q-109 68 -127 123z" />
<glyph unicode="-" horiz-adv-x="1310" d="M63 600l353 109l725 243q29 0 46 -31.5t17 -62.5v-127l17 -100q-10 -10 -29 -27h-420l-57 -12l-467 -53h-174z" />
<glyph unicode="." horiz-adv-x="577" d="M88 -258q23 258 178 248q74 -4 131 -51q63 -53 64 -123q0 -86 -45 -152q-49 -74 -133 -74q-61 0 -127 45q-74 50 -68 107z" />
<glyph unicode="/" horiz-adv-x="690" d="M14 121q0 31 269 694q35 94 131 336q109 268 178 268q33 0 33 -33q0 -10 -16.5 -44.5t-18.5 -47.5q-23 -84 -174 -639q-102 -373 -174 -731q-8 -39 -33 -55h-55q-43 43 -88 119q-52 86 -52 133z" />
<glyph unicode="0" horiz-adv-x="2011" d="M0 109q6 6 6 20t-6 39q57 311 391 637q279 272 586 414l63 -21h27l166 451q6 -6 22 -4q29 4 21 4l197 -113q188 -109 319 -360q106 -205 143 -422l11 -258q-92 -408 -301 -535q-53 -33 -248 -127q-207 -100 -236 -100h-190q-86 -135 -142 -133l-364 112q-10 0 -30.5 5.5 t-31.5 5.5q-147 16 -262.5 128t-140.5 257zM502 344l10 -74q-6 -94 123 -196q106 -84 199 -113l116 -20q68 -12 105 -50l-51 -73h55q12 -2 137 55q39 16 123 59q53 47 119 125q88 104 88 152v350q0 31 -79 177.5t-108 170.5q-14 12 -184 129q-100 70 -115 70 q-66 0 -227 -162q-152 -152 -186 -229q-78 -178 -125 -371z" />
<glyph unicode="1" horiz-adv-x="710" d="M0 -221l420 1386q-72 -20 -175.5 -127.5t-90.5 -107.5q-47 0 -88 41l8 123q12 197 69 233q66 45 170 78q6 2 183 49q4 4 57 121q33 72 84 72t51 -52q0 -25 -22 -104q-27 -98 -31 -119q-16 -102 -39 -297q-16 -145 -35 -325q-27 -264 -26 -431q0 -84 6 -129l45 -325v-262 h-70l-326 82h-57z" />
<glyph unicode="2" horiz-adv-x="1415" d="M0 92q0 20 100 152q145 190 528.5 468.5t528.5 461.5q-10 27 -104 55q-121 37 -189 41l-192 10q-109 -18 -162 -45q-8 -4 -113 -66q-88 -53 -100 -53q-59 0 -127 197q-57 168 -57 213q0 39 188 92l143 20h297q96 0 308 -112q217 -119 247 -199q25 -66 25 -119 q0 -8 -14 -47q6 -86 -44.5 -198.5t-109.5 -180.5q-68 -70 -295 -304t-336 -390q4 -6 15 -6l153 51q82 27 266 62l277 51q35 6 74 -13.5t51 -52.5q25 -70 98 -379q4 -16 32 -74.5t28 -70.5q0 -14 -30 -34.5t-46 -20.5q-6 0 -160 82q-170 90 -262 118q-18 6 -287 66l-346 10 q-23 -27 -56.5 -81t-66.5 -72h-74q-41 25 -114.5 171t-73.5 197z" />
<glyph unicode="3" horiz-adv-x="1013" d="M2 1640l317 -20q178 -12 310 -121q141 -119 141 -291q0 -8 -14 -112q-4 -27 -31 -58q16 -86 16 -118l-73 -226q147 -143 209 -227q88 -121 88 -227q0 -180 -281 -365q-51 -33 -186 -121l-232 -153h-28q-63 0 -80 170l-29 286q6 43 51 62l39 -10q180 31 275 79 q164 86 163 248l-88 193q-66 -35 -239 -74l-187 -10q-61 -4 -84 8q-39 20 -41 109q-2 55 19 149q23 111 29 147q12 14 51 13l235 -66q223 63 223 172q0 39 -103 129t-144 90h-299z" />
<glyph unicode="4" horiz-adv-x="1443" d="M20 494v981l295 172q20 0 46 -14.5t26 -33.5q0 -12 -49 -317q-63 -391 -84 -543l360 47l66 709l395 119h84v-76l-170 -676h185q12 2 29 -9l18 -11q203 -317 202 -359v-61l-69 -10q-92 29 -183 59q-109 33 -186 45l-53 8q-31 -76 -103 -340q-76 -276 -75 -323v-193 l-144 -67q-47 -10 -65 45q-10 35 -6 90l57 801l-381 26q-10 -86 -14 -102q-18 -59 -68 -60q-23 0 -53 23q-2 4 -10 18q-2 8 -9 27q-41 2 -41 25z" />
<glyph unicode="5" horiz-adv-x="1386" d="M0 -360l27 288q29 100 30 103q16 53 54 90q350 -109 362 -109h186q109 0 223.5 124t114.5 233v43q0 92 -158.5 260t-250.5 168h-94v-123q-6 -8 -29 -31h-66l-196 -53q-27 -4 -76 29l8 182l72 411q-10 18 -23 19q8 0 -63 -23l-76 31q41 59 191 107q10 29 36 102 q33 84 70 84q23 0 48.5 -60.5t35.5 -64.5l895 197q45 -14 45 -45l-238 -306h-706v-155l43 -195q74 20 137 21q12 0 176 -27q111 -18 316 -115q78 -37 166 -197.5t88 -250.5v-164q0 -10 -12.5 -33.5t-12.5 -29.5q-106 -338 -717 -463q-20 -6 -110 -31q-78 -20 -88 -21h-170 l-138 -22l-28 -14q-72 27 -72 41z" />
<glyph unicode="6" horiz-adv-x="1490" d="M0 563l10 113q12 137 152 328q104 143 330 317q203 160 385 254q137 72 151 72q16 0 33.5 -19.5t17.5 -36.5q-18 -14 -174 -155q-199 -178 -270 -289q-102 -158 -170 -389l8 -41l160 74h145l172 -23l88 -14q59 -16 166 -60l103 -65q72 -51 94 -101q41 -90 80 -280 l-11 -68q-25 -156 -144.5 -272.5t-276.5 -138.5l-86 -58q-16 16 -37 17q-10 0 -32 -8.5t-34 -8.5l-196 29q-45 12 -46 39v53l-161 -231q-8 4 -31 2t-35 -2q-35 0 -160 206q-119 199 -145 279q-68 207 -68 264v45zM449 518q0 -154 342 -397l-111 -191l10 -41h76 q88 0 215 133.5t127 223.5q0 115 -80 209q-72 86 -184.5 128t-132.5 40h-197l-27 10q-18 -20 -38 -21v-94z" />
<glyph unicode="7" horiz-adv-x="1269" d="M0 1264l80 383l106 -37q-2 6 -4 10q0 8 17 8q10 0 15 -5l5 -5q4 0 8 2l228 -74l485 -131l131 195q113 -29 127 -78l-57 -154q8 -16 38.5 -37.5t37.5 -33.5l-11 -45h-59q-29 0 -39 -35q-209 -752 -209 -848v-70q0 -96 -53 -283.5t-53 -283.5v-80q0 -16 -18.5 -38.5 t-35.5 -22.5q-4 0 -28 2q-16 4 -25 -2l-328 147v51l523 1454h-291l-479 -41z" />
<glyph unicode="8" horiz-adv-x="1687" d="M0 119q0 291 590 571q-51 43 -169 103.5t-167 101.5q-74 61 -74 129q0 70 193 203q158 111 221 131q186 61 231 61h101l67 228h29q12 0 42 -11.5t38 -13.5q195 -45 330 -131q188 -119 188 -287q0 -264 -582 -485l109 -4q57 -2 217 -133t160 -185v-184q0 -57 -199 -334.5 t-235 -277.5q-25 0 -91 118q-94 170 -112 193q-20 0 -64 12l-94 -57h-268l-201 29q-260 73 -260 223zM514 168q0 -55 111 -102q88 -37 147 -37h62l90 47q76 39 124 60.5t62 45.5q33 59 33 113q0 119 -86 192q-63 55 -226 121l-10 -104q-57 12 -182 -81t-125 -153v-102z M590 1014q0 -59 90 -160.5t149 -101.5q45 0 320 213q37 63 51 110l-10 74q-12 49 -60 108q-59 76 -116 76h-45q-86 0 -232.5 -117.5t-146.5 -201.5z" />
<glyph unicode="9" horiz-adv-x="1511" d="M0 1135q0 131 154 258q113 90 273.5 157.5t240.5 67.5h213l82 31q113 -80 204 -197q68 -86 154 -225q115 -186 115 -244v-238q0 -135 -224 -491q-199 -317 -254 -356l-135 -152q-129 -145 -155 -145q-47 0 -213 237q-160 229 -160 262q0 23 63 76q53 45 86 62 q369 184 525 436q-256 33 -455 67q-154 27 -303 111q-211 119 -211 283zM500 1212q106 -68 258 -104q49 -6 121 -23q23 -12 51 -96q39 -68 94 -196l66 188l-11 74l-207 430q-100 -16 -223 -96q-137 -91 -149 -177z" />
<glyph unicode=":" horiz-adv-x="526" d="M0 1118q0 39 82 84q72 39 88 37q49 -8 135 -45q102 -45 103 -80v-72l-86 -141h-35q-8 0 -37 14.5t-39 16.5q-82 18 -139 61q-72 53 -72 125zM51 498q23 256 178 245q72 -4 134.5 -53t62.5 -119q0 -86 -45 -151q-49 -74 -133 -74q-66 0 -129 43q-74 48 -68 109z" />
<glyph unicode=";" horiz-adv-x="493" d="M0 547l121 235l98 -43q66 -8 129.5 -92t63.5 -153v-62q0 -57 -45 -133q-53 -90 -119 -88l-160 -33q-39 12 -43 15q-23 12 -29 32l111 199q-72 35 -119 104q-6 9 -8 19zM0 1020v92q0 25 70 139h59q33 0 107 -47q86 -55 86 -102q0 -10 -3 -15l-61 -145h-53l-62 25l-14 -9z " />
<glyph unicode="&#x3c;" horiz-adv-x="886" d="M0 561q0 18 240 279l256 276q12 2 39 12l215 -65q47 -14 67 -35v-27l-622 -458l376 -170q18 -8 91 -56q45 -31 98 -43q14 -6 24 -6q-90 -123 -227 -297l-47 -16q-33 6 -61 59q-16 29 -46 80q-133 152 -344 357q-4 23 -12 55q-47 24 -47 55z" />
<glyph unicode="=" horiz-adv-x="1191" d="M0 819l354 109l723 243q29 0 46.5 -31.5t17.5 -62.5v-125l18 -102q-10 -10 -31 -27h-417l-60 -12l-467 -53h-174zM90 260v242q0 20 23.5 44.5t44.5 22.5l852 -63q35 -2 104 -45v-35q-33 -27 -41 -27h-61q-6 0 -18.5 4.5t-20.5 4.5t-25.5 4t-25.5 4q-115 0 -397.5 -117 t-366.5 -117q-27 0 -47.5 24.5t-20.5 53.5z" />
<glyph unicode="&#x3e;" horiz-adv-x="880" d="M0 1001v27q14 27 84 35l201 65q14 -4 37 -12q51 -59 296 -328q199 -217 199 -227q0 -27 -47 -53q0 -41 -14 -55q-74 -74 -336 -355q-8 -8 -49 -82q-31 -55 -64 -61l-45 16q-25 14 -86 123q-47 55 -143 174l16 11q98 57 283 137q248 106 291 127q-76 53 -295 225 q-203 159 -328 233z" />
<glyph unicode="?" horiz-adv-x="1134" d="M0 1219q12 162 195 294q176 125 342 117l172 17q27 0 98.5 -21.5t101.5 -36.5q53 -27 121 -125q16 -14 43 -45v-102l-334 -1020v-53q0 -55 -75 -58q-68 -2 -181.5 81t-140.5 149l614 915q-29 66 -109.5 106t-156.5 40q-113 0 -223 -72q-119 -76 -141 -180l61 -144 q-51 -10 -131 -73q-84 -70 -123 -82l-123 229zM190 -203q0 78 80 205q92 147 195 148q47 0 65 -13q109 -76 138 -102q74 -66 90 -141l-8 -66q-16 -59 -56 -127q-51 -90 -98 -92l-213 -10q-74 -4 -133.5 60t-59.5 138zM723 1544h25v17h-25v-17z" />
<glyph unicode="A" horiz-adv-x="1089" d="M0 408l39 133q6 37 16 86q16 70 49 69h211l224 750v196h14q37 0 82 -129q16 -49 59 -180q47 -141 88 -276q31 -100 113 -439q31 -10 88 -38l-8 -52q-16 8 -33 9q-14 0 -31 -7l119 -630q-20 -29 -168 -283q-12 -20 -49 -20q-45 0 -49 49l-12 131q-10 106 -35 411 q-18 227 -41 344l-123 -6q-16 2 -45 -16l31 -647h-68l-168 47q-113 33 -108 67l65 484h-4q-21 0 -109 -37l-96 -41q-12 0 -51 25zM518 735q-2 -12 -1 -21q0 -14 3 -22h12l80 -18h50l-35 287q-4 41 -56 264l-8 -45q-2 -10 -39 -373q-2 -21 -6 -72z" />
<glyph unicode="B" horiz-adv-x="1019" d="M0 -143q8 27 63 45q78 27 87 32l-46 349l-34 518l10 448l18 123q158 53 164 53h39q18 29 27 101q10 86 14 94q-2 -4 12 -4q-23 0 22.5 14.5t57.5 14.5q96 0 234.5 -85t183.5 -171q12 -14 31 -39q43 -70 43 -117v-180q0 -84 -127 -181q-102 -78 -189 -106 q186 -174 217 -209q104 -117 127 -227q-2 -10 -2 -19q0 -6 2 -10q-27 -82 -71 -139q-33 -41 -287 -285q-293 -281 -330 -280h-35zM270 -18h21q197 96 280 159q154 117 154 244q0 96 -72.5 199.5t-163.5 144.5l-96 -31h-94zM305 776h31q25 0 117 42t118 63q88 68 113 184v29 q0 70 -74 166q-68 88 -141 96l-123 12q-27 -193 -41 -592z" />
<glyph unicode="C" d="M0 514q2 43 25 115q27 86 30 114q25 145 78 254q43 88 141 224q121 166 209 233q4 2 181 98q168 92 294 93q37 0 64 -99q16 -61 20 -112q4 -43 5.5 -58.5t1.5 -9.5q-12 -23 -48 -23h-69q-33 0 -115 -36q-180 -82 -287.5 -171t-224.5 -251q-74 -104 -88 -125 q-35 -53 -45 -111l8 -235q125 -494 482 -494l139 14h2q31 0 108 50q80 51 95 51q37 0 137 -185q92 -170 92 -194q0 -14 -23.5 -32.5t-37.5 -18.5h-588q-16 0 -85 21.5t-77 29.5l-14 -8q-111 37 -217.5 172t-120.5 254l-64 260v37z" />
<glyph unicode="D" horiz-adv-x="1116" d="M0 1479q0 35 8 55q201 111 215 111q16 0 29 -27l18 -41l66 20h86q8 0 56 -17t61 -19q221 -47 358 -285q43 -72 82 -191q51 -150 55 -237q9 -180 9 -269q0 -51 -3 -71q-16 -117 -172 -389q-6 -12 -65 -115q-39 -66 -82 -106q-25 -23 -90 -84q-37 -37 -166 -119 q-154 -98 -199 -98q-31 0 -98 114q-61 104 -62 123l-6 653l-26 394l-41 286l8 88q0 6 -9 19.5t-9 19.5zM240 -35h24q197 70 336 266.5t154 409.5l14 219l-14 109q-23 174 -148 338q-143 188 -317 223l78 -363l14 -127l-14 -438l-33 -242v-32q0 -72 -94 -363z" />
<glyph unicode="E" horiz-adv-x="1341" d="M0 -125l133 64q-12 217 -20 665l-99 37v25l99 55l41 684q2 8 6 59q2 39 18 54q31 29 82 43q14 4 92 20l166 35q6 -6 21 -6q14 0 32 6l-26 -139l170 57q113 23 336 70q8 0 21 3t22 3l63 35q23 -14 64 -66q100 -223 100 -264v-45q-8 -4 -23 -17h-45l-69 21q-473 49 -656 49 q-53 0 -53 -72v-37l-72 -409q168 31 338 61q199 35 340 37v-397q-4 0 -8 -6q-2 -6 2 -13l-45 -16l-360 74l-314 39v-117q-2 4 -28 -197q-29 -215 -29 -297l256 37q168 25 606 117l17 29h36q2 -25 29 -170l23 -123q0 -35 -25 -72q-22 -33 -51 -33h-6l-90 21h-62q-16 0 -51 10 q-43 10 -55 12q-119 16 -633 56l-6 -174q-6 -23 -11 -45q-10 -33 -39 -33h-4q-8 -1 -22 -1t-35 1l-29 252h-79q-14 -2 -29 -7q-18 -2 -39 7v18z" />
<glyph unicode="F" horiz-adv-x="1404" d="M0 682q0 27 85 49.5t87 63.5q14 233 45 682q2 31 6 41q6 29 21 34q233 86 315 86h123l8 -43l-39 -122h88l119 22q6 0 21.5 4t23.5 4l203 45q31 14 61 15h136q14 -20 73 -174q63 -166 64 -201q0 -12 -14.5 -24.5t-26.5 -12.5h-51q-8 0 -31 16.5t-31 18.5q-115 31 -436 92 l-244 16q-88 -217 -112 -460q23 6 159 47q102 31 168 30h101l28 -387q-10 6 -26 6t-39 -6l-150 41l-12 -8l-274 70l-37 -148l-136 -817q2 -6 3 -14q0 -39 -35 -49h-88v1034h-113q-14 0 -28.5 17.5t-14.5 31.5z" />
<glyph unicode="G" horiz-adv-x="1382" d="M0 336q0 61 6 86q12 53 17 78q18 133 176 432q131 248 241 409q47 47 150 154l-43 12h-68l-80 11q33 68 99 94q14 6 110 26l101 9q6 0 14 -8.5t16 -8.5l133 -8q55 -14 162 -55q63 -33 170 -156q115 -129 115 -186q0 -25 -84 -144l-117 -163l-63 -9q-35 12 -47 49 q-176 496 -299 496q-23 0 -127 -143q-86 -119 -121 -176q-137 -233 -176 -482l-9 -192q70 -340 242 -342l318 -4v153q0 33 -33 150t-49 147q-43 -16 -123 -98q-154 -156 -197 -156q-45 0 -51 58l-39 184v117l35 41l430 45l123 30l225 15q0 -4 -4 -142q-2 -90 -8 -223 q-8 -121 -25 -221q-55 -326 -194 -584q-8 -16 -47 -32h-33v145l-375 -61l-123 8q-143 10 -233 125q-80 100 -103 254q-12 82 -12 266z" />
<glyph unicode="H" horiz-adv-x="1189" d="M0 694q14 23 78.5 43.5t79.5 32.5q1 39 1 86q0 117 -7 281q-14 301 -15 366q0 57 129 105q100 37 142 37q37 0 32 -37l-86 -799q10 -10 23 -10l282 6q12 0 31 12l8 -12q14 18 31 61l39 619l35 88h59l23 -789q8 10 14 11q-10 0 -9 -1q0 -1 56 -4q80 -5 88 -6q53 0 82 -26 v-260l-22 -35q-6 4 -45 0l-152 86l-10 -25l78 -858q0 -23 -27 -46t-49 -23q-205 184 -244 184h-72q-8 8 -8 33q0 133 59.5 396t59.5 398l-254 60h-55q-10 0 -13 2v4l-28 -19l-66 -655q0 -18 -12 -41q-18 -27 -49 -27q-14 0 -29.5 17.5t-15.5 32.5v673l-154 19z" />
<glyph unicode="I" horiz-adv-x="409" d="M0 -360l53 1191l10 797l11 -6q8 0 25.5 4t27.5 4q51 -17 51 -53q0 -6 -2 -12l53 -381l62 -803l92 -539q-16 -49 -156 -149q-129 -94 -157 -94h-52q-20 16 -18 41z" />
<glyph unicode="J" d="M0 2q0 25 145 166q133 129 181 164q20 -78 80 -281q66 -209 231 -209q47 0 58.5 11.5t15.5 85.5l45 694l-15 176q-6 82 -57 258q-12 43 -59 186q-37 113 -37 125q0 6 92 105q27 33 85 97.5t101 64.5q41 0 99 -170q51 -152 51 -177v-55q0 -27 14 -87t17 -87l16 -305 l-31 -414q-31 -137 -88 -360q-14 -51 -92 -187q-98 -168 -150 -168q-27 0 -26 78q-100 -76 -197 -102q0 -12 -18 -12h-127q-12 0 -10 4q2 6 0 8q-66 12 -107 51q-35 33 -121 164q-96 145 -96 176z" />
<glyph unicode="K" horiz-adv-x="1101" d="M2 1067q0 94 10 225l17 221q27 18 135 70q127 61 151 62q33 0 33 -33q-4 -121 -22 -350q-20 -238 -25 -349l698 574q29 -35 29 -62l29 -256l-96 -22l-541 -273q172 -412 510 -817q4 -6 4 -18q0 -18 -146 -209q-133 -172 -184 -231q-29 12 -39 79q-12 82 -22 125l-174 717 q-14 76 -56 279q-18 -18 -39 -78l-28 -303q-6 -66 -6 -361v-362q0 -68 -52 -68h-22q-16 0 -33 78q-4 29 -16 98l-45 260l-64 732q-6 71 -6 272z" />
<glyph unicode="L" horiz-adv-x="933" d="M0 -195q10 27 70 64l2 340q0 92 -9 256q-6 123 -16 256q-7 104 -8 104v-2v113q0 -14 1 20.5t3 96.5l8 415q0 39 17 60q8 4 38 20q12 6 41 6l250 93q35 -14 35 -43v-36q0 -106 -10 -184q-8 -66 -64 -426q-39 -256 -39 -278v-70l-108 -680q4 -6 12 -6l643 455q18 0 25 -10 q27 -111 27 -144v-293l-64 -22h-213l-72 -12l-268 -50l-104 -45v-102l16 -66v-36h-90l-33 77v113h-72z" />
<glyph unicode="M" horiz-adv-x="1568" d="M0 -190q49 121 68 176q27 90 38 184l109 913l92 553l60 9l397 -981q10 12 10 20v39l109 735q0 31 14 64q4 10 35 26q10 -1 22 -1q43 0 113 12q102 16 135 18q25 -25 25 -45q0 -4 -20.5 -43t-22.5 -47q-33 -102 -33 -129v-39q0 -66 86 -361q68 -233 115 -366 q12 -37 123 -338q76 -207 75 -215q0 -20 -178 -207.5t-194 -187.5q-8 0 -21.5 4t-19.5 4q0 -14 4 28.5t8 108.5q4 86 4 180q0 39 -2 53l-47 345l-49 749q-41 -141 -123 -403q-12 -25 -41 -70q4 -12 4 -31q-14 -45 -37 -133l70 -198v-74q0 -14 -88 -217q-80 -186 -107 -240 q-25 31 -47 133q-2 8 -57 262l-228 1041l-10 -37q0 -178 15 -662q18 -614 38 -782q-35 -31 -67 -31q-12 0 -148.5 73t-148.5 73h-55z" />
<glyph unicode="N" horiz-adv-x="1028" d="M0 1368h57l617 -979q2 10 2 35q0 61 -23 287q-12 150 -32 358l-64 420q0 8 10 33q41 18 160 65q147 57 180 58q12 0 25.5 -21.5t13.5 -34.5q-2 -27 -22 -143q-27 -160 -39 -270l-101 -918q0 -57 82 -147l123 -136l-287 -378l-516 1286l4 -123l211 -1063l-65 -23h-43 l-217 -69q-6 -2 -41 16q4 33 4 320q0 39 -3 115.5t-3 115.5q0 125 -10 590q-13 538 -23 606z" />
<glyph unicode="O" horiz-adv-x="1284" d="M6 504l43 194q49 137 90 303q25 98 178 289q162 203 244 203q12 0 27 -14l12 157q4 0 16.5 4.5t18.5 4.5q31 0 94 -31q31 -29 88 -78q227 -195 348 -555l47 -221v-195q0 -35 -49 -164q-59 -156 -100 -227q-53 -98 -152 -207q-158 -176 -280 -207q-14 -4 -26.5 -44 t-12.5 -60v-43l-14 -16h-43q-4 0 -97 57q-381 236 -424 594zM248 401q0 -90 67 -229q70 -145 142 -186q53 -31 198 -70l-20 -49q121 100 207 276q82 166 102 332q11 91 11 175q0 42 -3 81q-10 141 -96 297q-78 141 -190 248q-27 12 -54 27q-35 20 -34 40v46 q-233 -225 -281 -533l-35 -227l-14 -62v-166z" />
<glyph unicode="P" horiz-adv-x="911" d="M14 1165l35 361q227 119 307 119h64l-43 -117q29 20 59 63q18 27 49 27q8 -4 72 -33q109 -47 215 -190q111 -150 111 -262v-209q0 -174 -205 -346q-186 -158 -371 -183q-27 -4 -94 -45l-12 -528l-23 -223h-59q-29 29 -29 51v33l-63 358zM240 555q0 -55 4 -102 q57 45 151 118q55 43 120 186.5t65 215.5q0 104 -70 197.5t-170 121.5l-43 -215q-57 -286 -57 -522z" />
<glyph unicode="Q" horiz-adv-x="1181" d="M6 340l6 377q55 201 94 291q49 111 160 260q31 43 47 63q10 14 84 84q84 80 103 80h45q43 68 59 133q20 16 37 17q74 0 170 -121q68 -84 113 -174q121 -236 133 -383l12 -144l-18 -245q-20 -84 -76 -240q-16 -35 -127 -195q0 -35 49 -88q31 -33 127 -116q80 -70 80 -76 q0 -12 -71.5 -125t-86.5 -123q-27 -18 -51 -18q-6 0 -15.5 3t-13.5 3q-12 82 -71 227l-88 215l-76 -37h-185q-4 -4 -71 -100q-43 -61 -82 -62q-14 0 -47 29q-158 135 -209 332q-2 8 -31 133zM240 530q10 -100 71.5 -174.5t157.5 -95.5l86 -18l6 -33l-90 -133h29l157 108 l-108 361l59 43q10 -6 31 -6v-29l98 -227q53 125 74 264l6 258q-25 137 -61 215q-45 98 -140 176q-33 27 -137 107q-199 -293 -229 -535l-10 -82q-8 -27 -8 -76.5t8 -122.5z" />
<glyph unicode="R" horiz-adv-x="1001" d="M-6 659q0 215 12 439l23 409l129 80q84 47 157 51q25 2 29 7l31 -41q-39 -98 -39 -146q0 -14 2 -24q29 37 82 108q14 29 53 78q18 18 62 18q27 -31 102.5 -66.5t99.5 -60.5q70 -70 144 -176q12 -18 34.5 -74.5t22.5 -74.5v-131q0 -35 -59 -137q-47 -82 -129 -136 q-10 -6 -175 -102q-45 -10 -141 -39q111 -365 475 -557q23 -12 23 -37q0 -6 -26.5 -60.5t-33.5 -68.5q-84 -213 -176 -321l-383 993h-16q-23 -12 -66 -33l-6 -31q-2 -6 -41 -319q-29 -225 -28 -334v-82q0 -6 -3 -16.5t-3 -16.5v-63q-35 -37 -64 -37q-6 0 -17.5 4t-13.5 4 l-28 322q-33 366 -33 671zM246 674q111 14 238.5 143t127.5 238v110q0 41 -82 117q-68 63 -104 80q-11 11 -40 11q-8 0 -17 -1q-16 -2 -38 -6t-26 -45z" />
<glyph unicode="S" horiz-adv-x="1169" d="M0 1208l82 144l-37 47q14 39 45 39q8 0 25.5 -8.5t25.5 -8.5q6 0 94.5 54.5t108.5 62.5q158 63 352 92l97 15h188l39 -293l-25 -78q-236 59 -247 59h-236q-37 0 -123 -33q-70 -27 -92 -38l864 -1297l-321 -336q-29 -31 -74 -30q-37 0 -37 41q-2 100 -8 176q-4 41 8 59 h-84l-522 -268h-39l-14 53v272l14 74q156 4 199 10l145 21l250 -17q-74 449 -449 1135q-27 49 -51 59l-115 -30z" />
<glyph unicode="T" horiz-adv-x="972" d="M0 1272v221h432v80q12 18 45 46t49 28q18 0 39 -19v-147q57 14 146 14q51 0 153.5 -7t153.5 -7q4 -6 24 -25v-37q-27 -33 -57 -33l-158 -22l-231 -6q0 -143 39 -424q25 -178 24 -193v-55l142 -852q0 -23 -17 -37q-45 -18 -182 -114q-27 -27 -78 -66q-25 -18 -78 -18 q-23 0 -26 8q-2 2 -12 41l-15 323l31 1348q-6 6 -23 6l-323 -94q-35 8 -45 12q-21 9 -33 29z" />
<glyph unicode="U" horiz-adv-x="1339" d="M0 586l25 585q8 213 41 363l225 49q10 0 27.5 -9t17.5 -20q0 -115 -26.5 -343t-26.5 -343q0 -49 6 -112l30 -314q27 -270 127 -362q53 -49 162 -66l84 17q8 0 23.5 4t23.5 4l103 86v1513h-27q27 0 48 1q86 0 91 -7v-15q0 -128 33 -300q20 -106 76 -381q39 -199 192 -623 q10 -31 21 -135l2 -22q16 -178 18 -178v4l-276 -342q-33 -41 -59 -41q-12 0 -66.5 33.5t-52.5 35.5v377l18 -4q-39 -74 -205 -178q-180 -113 -290 -113q-328 0 -349 461z" />
<glyph unicode="V" horiz-adv-x="1316" d="M0 1229q29 27 199 196q68 68 94 68q27 0 63 -207l99 -561q18 -109 80 -373q45 -199 98 -352l248 1583l176 39l182 23h147l25 -33q-57 -90 -151 -260q-160 -367 -353 -946l-114 -259q-104 -238 -103 -294l8 -164q0 -12 -42 -49t-58 -41z" />
<glyph unicode="W" horiz-adv-x="2041" d="M0 1313q0 31 156 123q141 84 204 102l242 -868l88 -434q57 213 170 1228l340 109h45l19 -29l-33 -125l340 -821v236l47 636q4 43 80 64q10 4 112 22q29 12 133.5 51.5t124.5 39.5q12 0 24.5 -16.5t12.5 -28.5l-454 -1317l84 -271q-129 -143 -267 -319q-49 -63 -110 -96 q-18 31 -29 86q-29 143 -82 520l-49 504l-72 368l-360 -1220q-10 -14 -10 -33q0 -10 6 -28.5t6 -26.5q0 -16 -27 -45l-61 -9q-18 23 -66 27l-133 389q-61 180 -137 354q-8 18 -250 529q-94 199 -94 299z" />
<glyph unicode="X" horiz-adv-x="1067" d="M0 -100l389 714l-383 639q55 35 148 181q4 6 125 211h59l242 -687q100 156 174 297q23 45 49 148q23 90 53 127q78 94 102 94q27 0 48 -22l-347 -873l369 -1030q8 -20 -61 -59l-428 735l-101 -408l-28 -180v-168l-31 -22h-31q-20 0 -72 57q-96 84 -276 246z" />
<glyph unicode="Y" horiz-adv-x="931" d="M0 1276l219 244h33q4 -4 12 -15q16 -152 88 -321q23 -51 148 -310l53 316l43 360l51 27l39 -6l80 24q119 37 184 50q33 0 49 -35l-440 -844l-18 -129q98 -348 180 -596q4 -10 29 -70q20 -47 20 -55q0 -12 -125 -131l-139 -131q-10 -8 -107 -57q-4 12 -10 186 q-3 78 -3 129q0 68 5 86l55 625z" />
<glyph unicode="Z" horiz-adv-x="1636" d="M0 -221l100 205l1096 1431h-131q-16 -2 -250 -63q-258 -68 -305 -84q-6 -2 -184 -70q-119 -45 -138 -45q-63 0 -63 123v334l68 20h1142q29 -25 76 -78l-721 -1353l127 28q199 49 799 197l-8 -254l-37 -299l-68 -10l-162 35l-778 36l-104 -299q-20 -35 -68 -34 q-37 0 -199.5 75.5t-191.5 104.5z" />
<glyph unicode="[" horiz-adv-x="729" d="M0 1083l74 84v78q20 20 41 21l41 -56q45 41 151 101q117 66 160 65q47 0 51 -57l6 -100q-137 -33 -366 -109l157 -967l15 -4l121 45l84 37l104 33l49 -268q-8 -18 -12 -23q-12 -12 -39 -12l-86 29l-221 18l-262 -59l-37 421l-13 410l37 291q-22 6 -55 22z" />
<glyph unicode="\" horiz-adv-x="655" d="M14 1386q0 -8 17.5 -44.5t19.5 -47.5q27 -111 172 -639q106 -389 176 -731q8 -39 33 -55h55q43 45 86 119q51 86 52 133q0 31 -269 694q-35 94 -131 336q-109 268 -176 268q-35 0 -35 -33z" />
<glyph unicode="]" horiz-adv-x="788" d="M0 -14l51 268l103 -33l86 -37l116 -45q20 8 35 107q4 41 17 123l98 534l24 207q-37 20 -213 70l-153 43l6 96q8 37 14 43q8 14 39 14q39 0 164 -67.5t141 -98.5q12 8 47 56q20 0 39 -21v-78l74 -82q-2 -2 -55 -28l24 -172l13 -371q2 -82 -21 -305q-2 -20 -22 -146v-118 l-269 53l-221 -18l-84 -29h-26q-7 2 -27 35z" />
<glyph unicode="a" horiz-adv-x="1089" d="M0 408l39 133q6 37 16 86q16 70 49 69h211l224 750v196h14q37 0 82 -129q16 -49 59 -180q47 -141 88 -276q31 -100 113 -439q31 -10 88 -38l-8 -52q-16 8 -33 9q-14 0 -31 -7l119 -630q-20 -29 -168 -283q-12 -20 -49 -20q-45 0 -49 49l-12 131q-10 106 -35 411 q-18 227 -41 344l-123 -6q-16 2 -45 -16l31 -647h-68l-168 47q-113 33 -108 67l65 484h-4q-21 0 -109 -37l-96 -41q-12 0 -51 25zM518 735q-2 -12 -1 -21q0 -14 3 -22h12l80 -18h50l-35 287q-4 41 -56 264l-8 -45q-2 -10 -39 -373q-2 -21 -6 -72z" />
<glyph unicode="b" horiz-adv-x="1019" d="M0 -143q8 27 63 45q78 27 87 32l-46 349l-34 518l10 448l18 123q158 53 164 53h39q18 29 27 101q10 86 14 94q-2 -4 12 -4q-23 0 22.5 14.5t57.5 14.5q96 0 234.5 -85t183.5 -171q12 -14 31 -39q43 -70 43 -117v-180q0 -84 -127 -181q-102 -78 -189 -106 q186 -174 217 -209q104 -117 127 -227q-2 -10 -2 -19q0 -6 2 -10q-27 -82 -71 -139q-33 -41 -287 -285q-293 -281 -330 -280h-35zM270 -18h21q197 96 280 159q154 117 154 244q0 96 -72.5 199.5t-163.5 144.5l-96 -31h-94zM305 776h31q25 0 117 42t118 63q88 68 113 184v29 q0 70 -74 166q-68 88 -141 96l-123 12q-27 -193 -41 -592z" />
<glyph unicode="c" d="M0 514q2 43 25 115q27 86 30 114q25 145 78 254q43 88 141 224q121 166 209 233q4 2 181 98q168 92 294 93q37 0 64 -99q16 -61 20 -112q4 -43 5.5 -58.5t1.5 -9.5q-12 -23 -48 -23h-69q-33 0 -115 -36q-180 -82 -287.5 -171t-224.5 -251q-74 -104 -88 -125 q-35 -53 -45 -111l8 -235q125 -494 482 -494l139 14h2q31 0 108 50q80 51 95 51q37 0 137 -185q92 -170 92 -194q0 -14 -23.5 -32.5t-37.5 -18.5h-588q-16 0 -85 21.5t-77 29.5l-14 -8q-111 37 -217.5 172t-120.5 254l-64 260v37z" />
<glyph unicode="d" horiz-adv-x="1116" d="M0 1479q0 35 8 55q201 111 215 111q16 0 29 -27l18 -41l66 20h86q8 0 56 -17t61 -19q221 -47 358 -285q43 -72 82 -191q51 -150 55 -237q9 -180 9 -269q0 -51 -3 -71q-16 -117 -172 -389q-6 -12 -65 -115q-39 -66 -82 -106q-25 -23 -90 -84q-37 -37 -166 -119 q-154 -98 -199 -98q-31 0 -98 114q-61 104 -62 123l-6 653l-26 394l-41 286l8 88q0 6 -9 19.5t-9 19.5zM240 -35h24q197 70 336 266.5t154 409.5l14 219l-14 109q-23 174 -148 338q-143 188 -317 223l78 -363l14 -127l-14 -438l-33 -242v-32q0 -72 -94 -363z" />
<glyph unicode="e" horiz-adv-x="1341" d="M0 -125l133 64q-12 217 -20 665l-99 37v25l99 55l41 684q2 8 6 59q2 39 18 54q31 29 82 43q14 4 92 20l166 35q6 -6 21 -6q14 0 32 6l-26 -139l170 57q113 23 336 70q8 0 21 3t22 3l63 35q23 -14 64 -66q100 -223 100 -264v-45q-8 -4 -23 -17h-45l-69 21q-473 49 -656 49 q-53 0 -53 -72v-37l-72 -409q168 31 338 61q199 35 340 37v-397q-4 0 -8 -6q-2 -6 2 -13l-45 -16l-360 74l-314 39v-117q-2 4 -28 -197q-29 -215 -29 -297l256 37q168 25 606 117l17 29h36q2 -25 29 -170l23 -123q0 -35 -25 -72q-22 -33 -51 -33h-6l-90 21h-62q-16 0 -51 10 q-43 10 -55 12q-119 16 -633 56l-6 -174q-6 -23 -11 -45q-10 -33 -39 -33h-4q-8 -1 -22 -1t-35 1l-29 252h-79q-14 -2 -29 -7q-18 -2 -39 7v18z" />
<glyph unicode="f" horiz-adv-x="1404" d="M0 682q0 27 85 49.5t87 63.5q14 233 45 682q2 31 6 41q6 29 21 34q233 86 315 86h123l8 -43l-39 -122h88l119 22q6 0 21.5 4t23.5 4l203 45q31 14 61 15h136q14 -20 73 -174q63 -166 64 -201q0 -12 -14.5 -24.5t-26.5 -12.5h-51q-8 0 -31 16.5t-31 18.5q-115 31 -436 92 l-244 16q-88 -217 -112 -460q23 6 159 47q102 31 168 30h101l28 -387q-10 6 -26 6t-39 -6l-150 41l-12 -8l-274 70l-37 -148l-136 -817q2 -6 3 -14q0 -39 -35 -49h-88v1034h-113q-14 0 -28.5 17.5t-14.5 31.5z" />
<glyph unicode="g" horiz-adv-x="1382" d="M0 336q0 61 6 86q12 53 17 78q18 133 176 432q131 248 241 409q47 47 150 154l-43 12h-68l-80 11q33 68 99 94q14 6 110 26l101 9q6 0 14 -8.5t16 -8.5l133 -8q55 -14 162 -55q63 -33 170 -156q115 -129 115 -186q0 -25 -84 -144l-117 -163l-63 -9q-35 12 -47 49 q-176 496 -299 496q-23 0 -127 -143q-86 -119 -121 -176q-137 -233 -176 -482l-9 -192q70 -340 242 -342l318 -4v153q0 33 -33 150t-49 147q-43 -16 -123 -98q-154 -156 -197 -156q-45 0 -51 58l-39 184v117l35 41l430 45l123 30l225 15q0 -4 -4 -142q-2 -90 -8 -223 q-8 -121 -25 -221q-55 -326 -194 -584q-8 -16 -47 -32h-33v145l-375 -61l-123 8q-143 10 -233 125q-80 100 -103 254q-12 82 -12 266z" />
<glyph unicode="h" horiz-adv-x="1189" d="M0 694q14 23 78.5 43.5t79.5 32.5q1 39 1 86q0 117 -7 281q-14 301 -15 366q0 57 129 105q100 37 142 37q37 0 32 -37l-86 -799q10 -10 23 -10l282 6q12 0 31 12l8 -12q14 18 31 61l39 619l35 88h59l23 -789q8 10 14 11q-10 0 -9 -1q0 -1 56 -4q80 -5 88 -6q53 0 82 -26 v-260l-22 -35q-6 4 -45 0l-152 86l-10 -25l78 -858q0 -23 -27 -46t-49 -23q-205 184 -244 184h-72q-8 8 -8 33q0 133 59.5 396t59.5 398l-254 60h-55q-10 0 -13 2v4l-28 -19l-66 -655q0 -18 -12 -41q-18 -27 -49 -27q-14 0 -29.5 17.5t-15.5 32.5v673l-154 19z" />
<glyph unicode="i" horiz-adv-x="409" d="M0 -360l53 1191l10 797l11 -6q8 0 25.5 4t27.5 4q51 -17 51 -53q0 -6 -2 -12l53 -381l62 -803l92 -539q-16 -49 -156 -149q-129 -94 -157 -94h-52q-20 16 -18 41z" />
<glyph unicode="j" d="M0 2q0 25 145 166q133 129 181 164q20 -78 80 -281q66 -209 231 -209q47 0 58.5 11.5t15.5 85.5l45 694l-15 176q-6 82 -57 258q-12 43 -59 186q-37 113 -37 125q0 6 92 105q27 33 85 97.5t101 64.5q41 0 99 -170q51 -152 51 -177v-55q0 -27 14 -87t17 -87l16 -305 l-31 -414q-31 -137 -88 -360q-14 -51 -92 -187q-98 -168 -150 -168q-27 0 -26 78q-100 -76 -197 -102q0 -12 -18 -12h-127q-12 0 -10 4q2 6 0 8q-66 12 -107 51q-35 33 -121 164q-96 145 -96 176z" />
<glyph unicode="k" horiz-adv-x="1101" d="M2 1067q0 94 10 225l17 221q27 18 135 70q127 61 151 62q33 0 33 -33q-4 -121 -22 -350q-20 -238 -25 -349l698 574q29 -35 29 -62l29 -256l-96 -22l-541 -273q172 -412 510 -817q4 -6 4 -18q0 -18 -146 -209q-133 -172 -184 -231q-29 12 -39 79q-12 82 -22 125l-174 717 q-14 76 -56 279q-18 -18 -39 -78l-28 -303q-6 -66 -6 -361v-362q0 -68 -52 -68h-22q-16 0 -33 78q-4 29 -16 98l-45 260l-64 732q-6 71 -6 272z" />
<glyph unicode="l" horiz-adv-x="933" d="M0 -195q10 27 70 64l2 340q0 92 -9 256q-6 123 -16 256q-7 104 -8 104v-2v113q0 -14 1 20.5t3 96.5l8 415q0 39 17 60q8 4 38 20q12 6 41 6l250 93q35 -14 35 -43v-36q0 -106 -10 -184q-8 -66 -64 -426q-39 -256 -39 -278v-70l-108 -680q4 -6 12 -6l643 455q18 0 25 -10 q27 -111 27 -144v-293l-64 -22h-213l-72 -12l-268 -50l-104 -45v-102l16 -66v-36h-90l-33 77v113h-72z" />
<glyph unicode="m" horiz-adv-x="1568" d="M0 -190q49 121 68 176q27 90 38 184l109 913l92 553l60 9l397 -981q10 12 10 20v39l109 735q0 31 14 64q4 10 35 26q10 -1 22 -1q43 0 113 12q102 16 135 18q25 -25 25 -45q0 -4 -20.5 -43t-22.5 -47q-33 -102 -33 -129v-39q0 -66 86 -361q68 -233 115 -366 q12 -37 123 -338q76 -207 75 -215q0 -20 -178 -207.5t-194 -187.5q-8 0 -21.5 4t-19.5 4q0 -14 4 28.5t8 108.5q4 86 4 180q0 39 -2 53l-47 345l-49 749q-41 -141 -123 -403q-12 -25 -41 -70q4 -12 4 -31q-14 -45 -37 -133l70 -198v-74q0 -14 -88 -217q-80 -186 -107 -240 q-25 31 -47 133q-2 8 -57 262l-228 1041l-10 -37q0 -178 15 -662q18 -614 38 -782q-35 -31 -67 -31q-12 0 -148.5 73t-148.5 73h-55z" />
<glyph unicode="n" horiz-adv-x="1017" d="M0 1368h57l617 -979q2 10 2 35q0 61 -23 287q-12 150 -32 358l-64 420q0 8 10 33q41 18 160 65q147 57 180 58q12 0 25.5 -21.5t13.5 -34.5q-2 -27 -22 -143q-27 -160 -39 -270l-101 -918q0 -57 82 -147l123 -136l-287 -378l-516 1286l4 -123l211 -1063l-65 -23h-43 l-217 -69q-6 -2 -41 16q4 33 4 320q0 39 -3 115.5t-3 115.5q0 125 -10 590q-13 538 -23 606z" />
<glyph unicode="o" horiz-adv-x="1284" d="M6 504l43 194q49 137 90 303q25 98 178 289q162 203 244 203q12 0 27 -14l12 157q4 0 16.5 4.5t18.5 4.5q31 0 94 -31q31 -29 88 -78q227 -195 348 -555l47 -221v-195q0 -35 -49 -164q-59 -156 -100 -227q-53 -98 -152 -207q-158 -176 -280 -207q-14 -4 -26.5 -44 t-12.5 -60v-43l-14 -16h-43q-4 0 -97 57q-381 236 -424 594zM248 401q0 -90 67 -229q70 -145 142 -186q53 -31 198 -70l-20 -49q121 100 207 276q82 166 102 332q11 91 11 175q0 42 -3 81q-10 141 -96 297q-78 141 -190 248q-27 12 -54 27q-35 20 -34 40v46 q-233 -225 -281 -533l-35 -227l-14 -62v-166z" />
<glyph unicode="p" horiz-adv-x="911" d="M14 1165l35 361q227 119 307 119h64l-43 -117q29 20 59 63q18 27 49 27q8 -4 72 -33q109 -47 215 -190q111 -150 111 -262v-209q0 -174 -205 -346q-186 -158 -371 -183q-27 -4 -94 -45l-12 -528l-23 -223h-59q-29 29 -29 51v33l-63 358zM240 555q0 -55 4 -102 q57 45 151 118q55 43 120 186.5t65 215.5q0 104 -70 197.5t-170 121.5l-43 -215q-57 -286 -57 -522z" />
<glyph unicode="q" horiz-adv-x="1181" d="M6 340l6 377q55 201 94 291q49 111 160 260q31 43 47 63q10 14 84 84q84 80 103 80h45q43 68 59 133q20 16 37 17q74 0 170 -121q68 -84 113 -174q121 -236 133 -383l12 -144l-18 -245q-20 -84 -76 -240q-16 -35 -127 -195q0 -35 49 -88q31 -33 127 -116q80 -70 80 -76 q0 -12 -71.5 -125t-86.5 -123q-27 -18 -51 -18q-6 0 -15.5 3t-13.5 3q-12 82 -71 227l-88 215l-76 -37h-185q-4 -4 -71 -100q-43 -61 -82 -62q-14 0 -47 29q-158 135 -209 332q-2 8 -31 133zM240 530q10 -100 71.5 -174.5t157.5 -95.5l86 -18l6 -33l-90 -133h29l157 108 l-108 361l59 43q10 -6 31 -6v-29l98 -227q53 125 74 264l6 258q-25 137 -61 215q-45 98 -140 176q-33 27 -137 107q-199 -293 -229 -535l-10 -82q-8 -27 -8 -76.5t8 -122.5z" />
<glyph unicode="r" horiz-adv-x="985" d="M-6 659q0 215 12 439l23 409l129 80q84 47 157 51q25 2 29 7l31 -41q-39 -98 -39 -146q0 -14 2 -24q29 37 82 108q14 29 53 78q18 18 62 18q27 -31 102.5 -66.5t99.5 -60.5q70 -70 144 -176q12 -18 34.5 -74.5t22.5 -74.5v-131q0 -35 -59 -137q-47 -82 -129 -136 q-10 -6 -175 -102q-45 -10 -141 -39q111 -365 475 -557q23 -12 23 -37q0 -6 -26.5 -60.5t-33.5 -68.5q-84 -213 -176 -321l-383 993h-16q-23 -12 -66 -33l-6 -31q-2 -6 -41 -319q-29 -225 -28 -334v-82q0 -6 -3 -16.5t-3 -16.5v-63q-35 -37 -64 -37q-6 0 -17.5 4t-13.5 4 l-28 322q-33 366 -33 671zM246 674q111 14 238.5 143t127.5 238v110q0 41 -82 117q-68 63 -104 80q-11 11 -40 11q-8 0 -17 -1q-16 -2 -38 -6t-26 -45z" />
<glyph unicode="s" horiz-adv-x="1169" d="M0 1208l82 144l-37 47q14 39 45 39q8 0 25.5 -8.5t25.5 -8.5q6 0 94.5 54.5t108.5 62.5q158 63 352 92l97 15h188l39 -293l-25 -78q-236 59 -247 59h-236q-37 0 -123 -33q-70 -27 -92 -38l864 -1297l-321 -336q-29 -31 -74 -30q-37 0 -37 41q-2 100 -8 176q-4 41 8 59 h-84l-522 -268h-39l-14 53v272l14 74q156 4 199 10l145 21l250 -17q-74 449 -449 1135q-27 49 -51 59l-115 -30z" />
<glyph unicode="t" horiz-adv-x="972" d="M0 1272v221h432v80q12 18 45 46t49 28q18 0 39 -19v-147q57 14 146 14q51 0 153.5 -7t153.5 -7q4 -6 24 -25v-37q-27 -33 -57 -33l-158 -22l-231 -6q0 -143 39 -424q25 -178 24 -193v-55l142 -852q0 -23 -17 -37q-45 -18 -182 -114q-27 -27 -78 -66q-25 -18 -78 -18 q-23 0 -26 8q-2 2 -12 41l-15 323l31 1348q-6 6 -23 6l-323 -94q-35 8 -45 12q-21 9 -33 29z" />
<glyph unicode="u" horiz-adv-x="1339" d="M0 586l25 585q8 213 41 363l225 49q10 0 27.5 -9t17.5 -20q0 -115 -26.5 -343t-26.5 -343q0 -49 6 -112l30 -314q27 -270 127 -362q53 -49 162 -66l84 17q8 0 23.5 4t23.5 4l103 86v1513h-27q27 0 48 1q86 0 91 -7v-15q0 -128 33 -300q20 -106 76 -381q39 -199 192 -623 q10 -31 21 -135l2 -22q16 -178 18 -178v4l-276 -342q-33 -41 -59 -41q-12 0 -66.5 33.5t-52.5 35.5v377l18 -4q-39 -74 -205 -178q-180 -113 -290 -113q-328 0 -349 461z" />
<glyph unicode="v" horiz-adv-x="1316" d="M0 1229q29 27 199 196q68 68 94 68q27 0 63 -207l99 -561q18 -109 80 -373q45 -199 98 -352l248 1583l176 39l182 23h147l25 -33q-57 -90 -151 -260q-160 -367 -353 -946l-114 -259q-104 -238 -103 -294l8 -164q0 -12 -42 -49t-58 -41z" />
<glyph unicode="w" horiz-adv-x="2041" d="M0 1313q0 31 156 123q141 84 204 102l242 -868l88 -434q57 213 170 1228l340 109h45l19 -29l-33 -125l340 -821v236l47 636q4 43 80 64q10 4 112 22q29 12 133.5 51.5t124.5 39.5q12 0 24.5 -16.5t12.5 -28.5l-454 -1317l84 -271q-129 -143 -267 -319q-49 -63 -110 -96 q-18 31 -29 86q-29 143 -82 520l-49 504l-72 368l-360 -1220q-10 -14 -10 -33q0 -10 6 -28.5t6 -26.5q0 -16 -27 -45l-61 -9q-18 23 -66 27l-133 389q-61 180 -137 354q-8 18 -250 529q-94 199 -94 299z" />
<glyph unicode="x" horiz-adv-x="1067" d="M0 -100l389 714l-383 639q55 35 148 181q4 6 125 211h59l242 -687q100 156 174 297q23 45 49 148q23 90 53 127q78 94 102 94q27 0 48 -22l-347 -873l369 -1030q8 -20 -61 -59l-428 735l-101 -408l-28 -180v-168l-31 -22h-31q-20 0 -72 57q-96 84 -276 246z" />
<glyph unicode="y" horiz-adv-x="931" d="M0 1276l219 244h33q4 -4 12 -15q16 -152 88 -321q23 -51 148 -310l53 316l43 360l51 27l39 -6l80 24q119 37 184 50q33 0 49 -35l-440 -844l-18 -129q98 -348 180 -596q4 -10 29 -70q20 -47 20 -55q0 -12 -125 -131l-139 -131q-10 -8 -107 -57q-4 12 -10 186 q-3 78 -3 129q0 68 5 86l55 625z" />
<glyph unicode="z" horiz-adv-x="1636" d="M0 -221l100 205l1096 1431h-131q-16 -2 -250 -63q-258 -68 -305 -84q-6 -2 -184 -70q-119 -45 -138 -45q-63 0 -63 123v334l68 20h1142q29 -25 76 -78l-721 -1353l127 28q199 49 799 197l-8 -254l-37 -299l-68 -10l-162 35l-778 36l-104 -299q-20 -35 -68 -34 q-37 0 -199.5 75.5t-191.5 104.5z" />
<glyph unicode="&#xaa;" horiz-adv-x="1089" d="M0 408l39 133q6 37 16 86q16 70 49 69h211l224 750v196h14q37 0 82 -129q16 -49 59 -180q47 -141 88 -276q31 -100 113 -439q31 -10 88 -38l-8 -52q-16 8 -33 9q-14 0 -31 -7l119 -630q-20 -29 -168 -283q-12 -20 -49 -20q-45 0 -49 49l-12 131q-10 106 -35 411 q-18 227 -41 344l-123 -6q-16 2 -45 -16l31 -647h-68l-168 47q-113 33 -108 67l65 484h-4q-21 0 -109 -37l-96 -41q-12 0 -51 25zM518 735q-2 -12 -1 -21q0 -14 3 -22h12l80 -18h50l-35 287q-4 41 -56 264l-8 -45q-2 -10 -39 -373q-2 -21 -6 -72z" />
<glyph unicode="&#xad;" horiz-adv-x="1310" d="M63 600l353 109l725 243q29 0 46 -31.5t17 -62.5v-127l17 -100q-10 -10 -29 -27h-420l-57 -12l-467 -53h-174z" />
<glyph unicode="&#xb2;" horiz-adv-x="1415" d="M0 92q0 20 100 152q145 190 528.5 468.5t528.5 461.5q-10 27 -104 55q-121 37 -189 41l-192 10q-109 -18 -162 -45q-8 -4 -113 -66q-88 -53 -100 -53q-59 0 -127 197q-57 168 -57 213q0 39 188 92l143 20h297q96 0 308 -112q217 -119 247 -199q25 -66 25 -119 q0 -8 -14 -47q6 -86 -44.5 -198.5t-109.5 -180.5q-68 -70 -295 -304t-336 -390q4 -6 15 -6l153 51q82 27 266 62l277 51q35 6 74 -13.5t51 -52.5q25 -70 98 -379q4 -16 32 -74.5t28 -70.5q0 -14 -30 -34.5t-46 -20.5q-6 0 -160 82q-170 90 -262 118q-18 6 -287 66l-346 10 q-23 -27 -56.5 -81t-66.5 -72h-74q-41 25 -114.5 171t-73.5 197z" />
<glyph unicode="&#xb3;" horiz-adv-x="1013" d="M2 1640l317 -20q178 -12 310 -121q141 -119 141 -291q0 -8 -14 -112q-4 -27 -31 -58q16 -86 16 -118l-73 -226q147 -143 209 -227q88 -121 88 -227q0 -180 -281 -365q-51 -33 -186 -121l-232 -153h-28q-63 0 -80 170l-29 286q6 43 51 62l39 -10q180 31 275 79 q164 86 163 248l-88 193q-66 -35 -239 -74l-187 -10q-61 -4 -84 8q-39 20 -41 109q-2 55 19 149q23 111 29 147q12 14 51 13l235 -66q223 63 223 172q0 39 -103 129t-144 90h-299z" />
<glyph unicode="&#xb9;" horiz-adv-x="710" d="M0 -221l420 1386q-72 -20 -175.5 -127.5t-90.5 -107.5q-47 0 -88 41l8 123q12 197 69 233q66 45 170 78q6 2 183 49q4 4 57 121q33 72 84 72t51 -52q0 -25 -22 -104q-27 -98 -31 -119q-16 -102 -39 -297q-16 -145 -35 -325q-27 -264 -26 -431q0 -84 6 -129l45 -325v-262 h-70l-326 82h-57z" />
<glyph unicode="&#xba;" horiz-adv-x="1284" d="M6 504l43 194q49 137 90 303q25 98 178 289q162 203 244 203q12 0 27 -14l12 157q4 0 16.5 4.5t18.5 4.5q31 0 94 -31q31 -29 88 -78q227 -195 348 -555l47 -221v-195q0 -35 -49 -164q-59 -156 -100 -227q-53 -98 -152 -207q-158 -176 -280 -207q-14 -4 -26.5 -44 t-12.5 -60v-43l-14 -16h-43q-4 0 -97 57q-381 236 -424 594zM248 401q0 -90 67 -229q70 -145 142 -186q53 -31 198 -70l-20 -49q121 100 207 276q82 166 102 332q11 91 11 175q0 42 -3 81q-10 141 -96 297q-78 141 -190 248q-27 12 -54 27q-35 20 -34 40v46 q-233 -225 -281 -533l-35 -227l-14 -62v-166z" />
<glyph unicode="&#xc5;" horiz-adv-x="1019" d="M0 2v174q0 29 70 45q45 10 92 20.5t86 34.5l65 383q41 246 136 488q41 10 32 10q53 0 109 -143q10 -27 55 -160q223 -489 324 -936l6 -80q0 -8 -33 -47t-37 -49q-74 -133 -131 -145l-51 24v117l-12 59l-60 402q-20 -4 -106 -19q-45 -8 -82 -28l37 -517q-18 -20 -37 -20 q-20 0 -141 70q-51 29 -129 75l18 123l6 178q4 4 -10 5q-6 0 -78 -48.5t-78 -48.5q-18 0 -51 33zM326 1352v114q0 12 27.5 61.5t39.5 59.5q61 20 182 58q53 10 127 -66t68 -129l-80 -178h-65l-148 -49q-6 -2 -16 -2q-37 0 -80 43q-55 53 -55 88zM453 1466q12 -47 63 -80 l90 -55l33 62q-2 51 -52 99t-104 60zM465 281h178l-158 634z" />
<glyph unicode="&#xc6;" horiz-adv-x="1800" d="M0 -8l6 88l301 1251h-139l-8 27q16 20 80.5 31.5t80 20.5t31.5 67q16 51 47 51q25 0 29 -29q4 -39 21 -55h32l64 20l319 84l287 51l270 46q8 -6 17 -11q12 -10 12 -20q0 -33 -127 -223q-25 -8 -35 -9l-735 -14q-16 0 -61 -12q133 -403 249 -647l185 82q66 31 233 110 q211 98 250 98q6 0 14.5 -4t12.5 -4l-13 -155q-27 -113 -32 -134q-29 -88 -74 -98l-518 -43l241 -577l-59 -134l813 420q8 0 25 -16l-21 -148v-118l-74 -29q-6 6 -16 6l-197 -55q-186 -53 -350 -131l-375 -180l-215 936l-235 -48l-17 -596q-14 -63 -49 -57l-200 156 q-16 -8 -33 -8t-37 10zM340 555h33l176 72v22q-68 229 -143 565z" />
<glyph unicode="&#xd8;" horiz-adv-x="2017" d="M0 160l8 125q45 195 60 239q35 115 94 230q31 57 88 143l96 143q57 86 135 152q14 12 142 106q78 57 98 58h49q23 39 59 157q14 45 80 46q84 0 265 -154q121 -104 172 -164q76 80 245 229q201 176 236 177q35 0 65 -19q31 -100 103 -260l-494 -328q45 -94 88 -186 q63 -141 62 -182l8 -92l-27 -201q-20 -162 -143 -356q-78 -125 -150 -183q-47 -39 -186 -106q-160 -78 -256 -99l-141 -28h-205l-115 28q-174 43 -305 193q-143 160 -131 332zM283 213q0 -74 57 -129q39 -37 139 -92q135 -74 176 -107q14 -12 90 -26q57 -12 68 -52l-45 -92 h49l29 17q182 78 315 317q113 203 135 428l11 103l-66 256l-647 -725q-18 8 -47 30l573 848q-63 70 -165.5 128.5t-190.5 70.5q-41 6 -53 18q-117 -147 -205 -284q-14 -23 -113 -248q-111 -254 -110 -312v-149z" />
<glyph unicode="&#xe5;" horiz-adv-x="1019" d="M0 2v174q0 29 70 45q45 10 92 20.5t86 34.5l65 383q41 246 136 488q41 10 32 10q53 0 109 -143q10 -27 55 -160q223 -489 324 -936l6 -80q0 -8 -33 -47t-37 -49q-74 -133 -131 -145l-51 24v117l-12 59l-60 402q-20 -4 -106 -19q-45 -8 -82 -28l37 -517q-18 -20 -37 -20 q-20 0 -141 70q-51 29 -129 75l18 123l6 178q4 4 -10 5q-6 0 -78 -48.5t-78 -48.5q-18 0 -51 33zM326 1352v114q0 12 27.5 61.5t39.5 59.5q61 20 182 58q53 10 127 -66t68 -129l-80 -178h-65l-148 -49q-6 -2 -16 -2q-37 0 -80 43q-55 53 -55 88zM453 1466q12 -47 63 -80 l90 -55l33 62q-2 51 -52 99t-104 60zM465 281h178l-158 634z" />
<glyph unicode="&#xe6;" horiz-adv-x="1800" d="M0 -8l6 88l301 1251h-139l-8 27q16 20 80.5 31.5t80 20.5t31.5 67q16 51 47 51q25 0 29 -29q4 -39 21 -55h32l64 20l319 84l287 51l270 46q8 -6 17 -11q12 -10 12 -20q0 -33 -127 -223q-25 -8 -35 -9l-735 -14q-16 0 -61 -12q133 -403 249 -647l185 82q66 31 233 110 q211 98 250 98q6 0 14.5 -4t12.5 -4l-13 -155q-27 -113 -32 -134q-29 -88 -74 -98l-518 -43l241 -577l-59 -134l813 420q8 0 25 -16l-21 -148v-118l-74 -29q-6 6 -16 6l-197 -55q-186 -53 -350 -131l-375 -180l-215 936l-235 -48l-17 -596q-14 -63 -49 -57l-200 156 q-16 -8 -33 -8t-37 10zM340 555h33l176 72v22q-68 229 -143 565z" />
<glyph unicode="&#xf8;" horiz-adv-x="2017" d="M0 160l8 125q45 195 60 239q35 115 94 230q31 57 88 143l96 143q57 86 135 152q14 12 142 106q78 57 98 58h49q23 39 59 157q14 45 80 46q84 0 265 -154q121 -104 172 -164q76 80 245 229q201 176 236 177q35 0 65 -19q31 -100 103 -260l-494 -328q45 -94 88 -186 q63 -141 62 -182l8 -92l-27 -201q-20 -162 -143 -356q-78 -125 -150 -183q-47 -39 -186 -106q-160 -78 -256 -99l-141 -28h-205l-115 28q-174 43 -305 193q-143 160 -131 332zM283 213q0 -74 57 -129q39 -37 139 -92q135 -74 176 -107q14 -12 90 -26q57 -12 68 -52l-45 -92 h49l29 17q182 78 315 317q113 203 135 428l11 103l-66 256l-647 -725q-18 8 -47 30l573 848q-63 70 -165.5 128.5t-190.5 70.5q-41 6 -53 18q-117 -147 -205 -284q-14 -23 -113 -248q-111 -254 -110 -312v-149z" />
<glyph unicode="&#x152;" horiz-adv-x="2625" d="M1284 -125l133 64q-12 217 -20 665l-99 37v25l99 55l41 684q2 8 6 59q2 39 18 54q31 29 82 43q14 4 92 20l166 35q6 -6 21 -6q14 0 32 6l-26 -139l170 57q113 23 336 70q8 0 21 3t22 3l63 35q23 -14 64 -66q100 -223 100 -264v-45q-8 -4 -23 -17h-45l-69 21 q-473 49 -656 49q-53 0 -53 -72v-37l-72 -409q168 31 338 61q199 35 340 37v-397q-4 0 -8 -6q-2 -6 2 -13l-45 -16l-360 74l-314 39v-117q-2 4 -28 -197q-29 -215 -29 -297l256 37q168 25 606 117l17 29h36q2 -25 29 -170l23 -123q0 -35 -25 -72q-22 -33 -51 -33h-6l-90 21 h-62q-16 0 -51 10q-43 10 -55 12q-119 16 -633 56l-6 -174q-6 -23 -11 -45q-10 -33 -39 -33h-4q-8 -1 -22 -1t-35 1l-29 252h-79q-14 -2 -29 -7q-18 -2 -39 7v18zM6 504l43 194q49 137 90 303q25 98 178 289q162 203 244 203q12 0 27 -14l12 157q4 0 16.5 4.5t18.5 4.5 q31 0 94 -31q31 -29 88 -78q227 -195 348 -555l47 -221v-195q0 -35 -49 -164q-59 -156 -100 -227q-53 -98 -152 -207q-158 -176 -280 -207q-14 -4 -26.5 -44t-12.5 -60v-43l-14 -16h-43q-4 0 -97 57q-381 236 -424 594zM248 401q0 -90 67 -229q70 -145 142 -186 q53 -31 198 -70l-20 -49q121 100 207 276q82 166 102 332q11 91 11 175q0 42 -3 81q-10 141 -96 297q-78 141 -190 248q-27 12 -54 27q-35 20 -34 40v46q-233 -225 -281 -533l-35 -227l-14 -62v-166z" />
<glyph unicode="&#x153;" horiz-adv-x="2625" d="M1284 -125l133 64q-12 217 -20 665l-99 37v25l99 55l41 684q2 8 6 59q2 39 18 54q31 29 82 43q14 4 92 20l166 35q6 -6 21 -6q14 0 32 6l-26 -139l170 57q113 23 336 70q8 0 21 3t22 3l63 35q23 -14 64 -66q100 -223 100 -264v-45q-8 -4 -23 -17h-45l-69 21 q-473 49 -656 49q-53 0 -53 -72v-37l-72 -409q168 31 338 61q199 35 340 37v-397q-4 0 -8 -6q-2 -6 2 -13l-45 -16l-360 74l-314 39v-117q-2 4 -28 -197q-29 -215 -29 -297l256 37q168 25 606 117l17 29h36q2 -25 29 -170l23 -123q0 -35 -25 -72q-22 -33 -51 -33h-6l-90 21 h-62q-16 0 -51 10q-43 10 -55 12q-119 16 -633 56l-6 -174q-6 -23 -11 -45q-10 -33 -39 -33h-4q-8 -1 -22 -1t-35 1l-29 252h-79q-14 -2 -29 -7q-18 -2 -39 7v18zM6 504l43 194q49 137 90 303q25 98 178 289q162 203 244 203q12 0 27 -14l12 157q4 0 16.5 4.5t18.5 4.5 q31 0 94 -31q31 -29 88 -78q227 -195 348 -555l47 -221v-195q0 -35 -49 -164q-59 -156 -100 -227q-53 -98 -152 -207q-158 -176 -280 -207q-14 -4 -26.5 -44t-12.5 -60v-43l-14 -16h-43q-4 0 -97 57q-381 236 -424 594zM248 401q0 -90 67 -229q70 -145 142 -186 q53 -31 198 -70l-20 -49q121 100 207 276q82 166 102 332q11 91 11 175q0 42 -3 81q-10 141 -96 297q-78 141 -190 248q-27 12 -54 27q-35 20 -34 40v46q-233 -225 -281 -533l-35 -227l-14 -62v-166z" />
<glyph unicode="&#x2013;" horiz-adv-x="1024" d="M205 512v205h614v-205h-614z" />
<glyph unicode="&#x2014;" horiz-adv-x="2048" d="M205 512v205h1638v-205h-1638z" />
<glyph unicode="&#x2019;" horiz-adv-x="471" d="M39 1444q0 -12 9 10.5t7 34.5q4 4 8 14q41 23 132 72q111 59 147 59h31l24 -45q-29 -78 -45 -172l-30 -176l-43 -389q-8 -78 -58 -78h-61l-54 400q-4 35 -36 141q-31 94 -31 129z" />
<glyph unicode="&#x201c;" horiz-adv-x="792" d="M0 1343l213 205l18 -14l17 6q6 -8 20 -24v-62q0 -168 23 -559l-23 -64h-61q-14 0 -40 31t-30 47l-102 396q-6 24 -35 38zM358 1456q0 -12 9.5 10.5t7.5 34.5q4 4 10 15q231 129 277 129h32l23 -43q-31 -82 -45 -172l-29 -177l-45 -389q-8 -78 -57 -78h-62l-53 400 q-6 41 -39 162q-29 102 -29 108z" />
<glyph unicode="&#x201d;" horiz-adv-x="792" d="M0 1343l213 205l18 -14l17 6q6 -8 20 -24v-62q0 -168 23 -559l-23 -64h-61q-14 0 -40 31t-30 47l-102 396q-6 24 -35 38zM358 1456q0 -12 9.5 10.5t7.5 34.5q4 4 10 15q231 129 277 129h32l23 -43q-31 -82 -45 -172l-29 -177l-45 -389q-8 -78 -57 -78h-62l-53 400 q-6 41 -39 162q-29 102 -29 108z" />
<glyph unicode="&#x2026;" horiz-adv-x="1732" d="M1243 -258q23 258 178 248q74 -4 131 -51q63 -53 64 -123q0 -86 -45 -152q-49 -74 -133 -74q-61 0 -127 45q-74 50 -68 107zM666 -258q23 258 178 248q74 -4 131 -51q63 -53 64 -123q0 -86 -45 -152q-49 -74 -133 -74q-61 0 -127 45q-74 50 -68 107zM88 -258 q23 258 178 248q74 -4 131 -51q63 -53 64 -123q0 -86 -45 -152q-49 -74 -133 -74q-61 0 -127 45q-74 50 -68 107z" />
<glyph unicode="&#x2039;" horiz-adv-x="886" d="M0 561q0 18 240 279l256 276q12 2 39 12l215 -65q47 -14 67 -35v-27l-622 -458l376 -170q18 -8 91 -56q45 -31 98 -43q14 -6 24 -6q-90 -123 -227 -297l-47 -16q-33 6 -61 59q-16 29 -46 80q-133 152 -344 357q-4 23 -12 55q-47 24 -47 55z" />
<glyph unicode="&#x203a;" horiz-adv-x="880" d="M0 1001v27q14 27 84 35l201 65q14 -4 37 -12q51 -59 296 -328q199 -217 199 -227q0 -27 -47 -53q0 -41 -14 -55q-74 -74 -336 -355q-8 -8 -49 -82q-31 -55 -64 -61l-45 16q-25 14 -86 123q-47 55 -143 174l16 11q98 57 283 137q248 106 291 127q-76 53 -295 225 q-203 159 -328 233z" />
<glyph unicode="&#x2122;" horiz-adv-x="2541" d="M973 -190q49 121 68 176q27 90 38 184l109 913l92 553l60 9l397 -981q10 12 10 20v39l109 735q0 31 14 64q4 10 35 26q10 -1 22 -1q43 0 113 12q102 16 135 18q25 -25 25 -45q0 -4 -20.5 -43t-22.5 -47q-33 -102 -33 -129v-39q0 -66 86 -361q68 -233 115 -366 q12 -37 123 -338q76 -207 75 -215q0 -20 -178 -207.5t-194 -187.5q-8 0 -21.5 4t-19.5 4q0 -14 4 28.5t8 108.5q4 86 4 180q0 39 -2 53l-47 345l-49 749q-41 -141 -123 -403q-12 -25 -41 -70q4 -12 4 -31q-14 -45 -37 -133l70 -198v-74q0 -14 -88 -217q-80 -186 -107 -240 q-25 31 -47 133q-2 8 -57 262l-228 1041l-10 -37q0 -178 15 -662q18 -614 38 -782q-35 -31 -67 -31q-12 0 -148.5 73t-148.5 73h-55zM0 1272v221h432v80q12 18 45 46t49 28q18 0 39 -19v-147q57 14 146 14q51 0 153.5 -7t153.5 -7q4 -6 24 -25v-37q-27 -33 -57 -33l-158 -22 l-231 -6q0 -143 39 -424q25 -178 24 -193v-55l142 -852q0 -23 -17 -37q-45 -18 -182 -114q-27 -27 -78 -66q-25 -18 -78 -18q-23 0 -26 8q-2 2 -12 41l-15 323l31 1348q-6 6 -23 6l-323 -94q-35 8 -45 12q-21 9 -33 29z" />
<glyph unicode="&#xe000;" horiz-adv-x="1645" d="M0 1645h1645v-1645h-1645v1645z" />
<glyph unicode="&#xfb01;" horiz-adv-x="1814" d="M1405 -360l53 1191l10 797l11 -6q8 0 25.5 4t27.5 4q51 -17 51 -53q0 -6 -2 -12l53 -381l62 -803l92 -539q-16 -49 -156 -149q-129 -94 -157 -94h-52q-20 16 -18 41zM0 682q0 27 85 49.5t87 63.5q14 233 45 682q2 31 6 41q6 29 21 34q233 86 315 86h123l8 -43l-39 -122 h88l119 22q6 0 21.5 4t23.5 4l203 45q31 14 61 15h136q14 -20 73 -174q63 -166 64 -201q0 -12 -14.5 -24.5t-26.5 -12.5h-51q-8 0 -31 16.5t-31 18.5q-115 31 -436 92l-244 16q-88 -217 -112 -460q23 6 159 47q102 31 168 30h101l28 -387q-10 6 -26 6t-39 -6l-150 41l-12 -8 l-274 70l-37 -148l-136 -817q2 -6 3 -14q0 -39 -35 -49h-88v1034h-113q-14 0 -28.5 17.5t-14.5 31.5z" />
<glyph unicode="&#xfb02;" horiz-adv-x="2338" d="M1405 -195q10 27 70 64l2 340q0 92 -9 256q-6 123 -16 256q-7 104 -8 104v-2v113q0 -14 1 20.5t3 96.5l8 415q0 39 17 60q8 4 38 20q12 6 41 6l250 93q35 -14 35 -43v-36q0 -106 -10 -184q-8 -66 -64 -426q-39 -256 -39 -278v-70l-108 -680q4 -6 12 -6l643 455 q18 0 25 -10q27 -111 27 -144v-293l-64 -22h-213l-72 -12l-268 -50l-104 -45v-102l16 -66v-36h-90l-33 77v113h-72zM0 682q0 27 85 49.5t87 63.5q14 233 45 682q2 31 6 41q6 29 21 34q233 86 315 86h123l8 -43l-39 -122h88l119 22q6 0 21.5 4t23.5 4l203 45q31 14 61 15h136 q14 -20 73 -174q63 -166 64 -201q0 -12 -14.5 -24.5t-26.5 -12.5h-51q-8 0 -31 16.5t-31 18.5q-115 31 -436 92l-244 16q-88 -217 -112 -460q23 6 159 47q102 31 168 30h101l28 -387q-10 6 -26 6t-39 -6l-150 41l-12 -8l-274 70l-37 -148l-136 -817q2 -6 3 -14 q0 -39 -35 -49h-88v1034h-113q-14 0 -28.5 17.5t-14.5 31.5z" />
<glyph unicode="&#xfb03;" horiz-adv-x="3219" d="M2810 -360l53 1191l10 797l11 -6q8 0 25.5 4t27.5 4q51 -17 51 -53q0 -6 -2 -12l53 -381l62 -803l92 -539q-16 -49 -156 -149q-129 -94 -157 -94h-52q-20 16 -18 41zM1405 682q0 27 85 49.5t87 63.5q14 233 45 682q2 31 6 41q6 29 21 34q233 86 315 86h123l8 -43 l-39 -122h88l119 22q6 0 21.5 4t23.5 4l203 45q31 14 61 15h136q14 -20 73 -174q63 -166 64 -201q0 -12 -14.5 -24.5t-26.5 -12.5h-51q-8 0 -31 16.5t-31 18.5q-115 31 -436 92l-244 16q-88 -217 -112 -460q23 6 159 47q102 31 168 30h101l28 -387q-10 6 -26 6t-39 -6 l-150 41l-12 -8l-274 70l-37 -148l-136 -817q2 -6 3 -14q0 -39 -35 -49h-88v1034h-113q-14 0 -28.5 17.5t-14.5 31.5zM0 682q0 27 85 49.5t87 63.5q14 233 45 682q2 31 6 41q6 29 21 34q233 86 315 86h123l8 -43l-39 -122h88l119 22q6 0 21.5 4t23.5 4l203 45q31 14 61 15 h136q14 -20 73 -174q63 -166 64 -201q0 -12 -14.5 -24.5t-26.5 -12.5h-51q-8 0 -31 16.5t-31 18.5q-115 31 -436 92l-244 16q-88 -217 -112 -460q23 6 159 47q102 31 168 30h101l28 -387q-10 6 -26 6t-39 -6l-150 41l-12 -8l-274 70l-37 -148l-136 -817q2 -6 3 -14 q0 -39 -35 -49h-88v1034h-113q-14 0 -28.5 17.5t-14.5 31.5z" />
<glyph unicode="&#xfb04;" horiz-adv-x="3743" d="M2810 -195q10 27 70 64l2 340q0 92 -9 256q-6 123 -16 256q-7 104 -8 104v-2v113q0 -14 1 20.5t3 96.5l8 415q0 39 17 60q8 4 38 20q12 6 41 6l250 93q35 -14 35 -43v-36q0 -106 -10 -184q-8 -66 -64 -426q-39 -256 -39 -278v-70l-108 -680q4 -6 12 -6l643 455 q18 0 25 -10q27 -111 27 -144v-293l-64 -22h-213l-72 -12l-268 -50l-104 -45v-102l16 -66v-36h-90l-33 77v113h-72zM1405 682q0 27 85 49.5t87 63.5q14 233 45 682q2 31 6 41q6 29 21 34q233 86 315 86h123l8 -43l-39 -122h88l119 22q6 0 21.5 4t23.5 4l203 45q31 14 61 15 h136q14 -20 73 -174q63 -166 64 -201q0 -12 -14.5 -24.5t-26.5 -12.5h-51q-8 0 -31 16.5t-31 18.5q-115 31 -436 92l-244 16q-88 -217 -112 -460q23 6 159 47q102 31 168 30h101l28 -387q-10 6 -26 6t-39 -6l-150 41l-12 -8l-274 70l-37 -148l-136 -817q2 -6 3 -14 q0 -39 -35 -49h-88v1034h-113q-14 0 -28.5 17.5t-14.5 31.5zM0 682q0 27 85 49.5t87 63.5q14 233 45 682q2 31 6 41q6 29 21 34q233 86 315 86h123l8 -43l-39 -122h88l119 22q6 0 21.5 4t23.5 4l203 45q31 14 61 15h136q14 -20 73 -174q63 -166 64 -201q0 -12 -14.5 -24.5 t-26.5 -12.5h-51q-8 0 -31 16.5t-31 18.5q-115 31 -436 92l-244 16q-88 -217 -112 -460q23 6 159 47q102 31 168 30h101l28 -387q-10 6 -26 6t-39 -6l-150 41l-12 -8l-274 70l-37 -148l-136 -817q2 -6 3 -14q0 -39 -35 -49h-88v1034h-113q-14 0 -28.5 17.5t-14.5 31.5z" />
</font>
</defs>
</svg>
